<?xml version="1.0" standalone="no"?>
<!DOCTYPE svg PUBLIC "-//W3C//DTD SVG 20010904//EN"
 "http://www.w3.org/TR/2001/REC-SVG-20010904/DTD/svg10.dtd">
<svg version="1.0" xmlns="http://www.w3.org/2000/svg"
 width="512.000000pt" height="512.000000pt" viewBox="0 0 512.000000 512.000000"
 preserveAspectRatio="xMidYMid meet">

<g transform="translate(0.000000,512.000000) scale(0.100000,-0.100000)"
fill="#000000" stroke="none">
<path d="M956 4293 c-62 -21 -149 -100 -183 -167 -22 -41 -28 -69 -31 -143
l-4 -91 -32 -6 c-54 -10 -172 10 -239 42 -37 17 -88 55 -127 92 -80 76 -112
94 -171 93 -141 -2 -215 -155 -132 -276 15 -23 75 -89 133 -147 161 -162 250
-198 510 -207 l156 -6 33 -91 c134 -364 390 -795 685 -1151 188 -226 600 -626
663 -641 52 -13 102 37 89 89 -3 14 -42 55 -93 98 -129 106 -415 396 -529 534
-286 347 -505 702 -647 1050 -117 285 -178 606 -133 694 19 36 80 89 112 97
14 4 49 4 79 2 98 -8 151 -70 174 -203 86 -491 593 -1206 1196 -1686 311 -247
655 -433 990 -536 204 -62 309 -81 636 -112 111 -11 171 -36 235 -98 67 -65
88 -122 89 -233 0 -86 -3 -101 -30 -154 -32 -64 -84 -114 -154 -148 -117 -58
-531 0 -870 122 -281 101 -513 217 -764 382 -105 68 -144 74 -180 26 -34 -46
-16 -73 98 -151 245 -166 582 -331 860 -420 257 -82 556 -139 725 -138 183 1
342 105 428 280 37 75 37 77 37 201 0 125 0 127 -37 200 -46 95 -96 153 -172
202 -81 52 -160 74 -291 83 -282 17 -521 72 -771 176 -486 202 -930 543 -1326
1016 -113 136 -320 436 -345 499 -4 12 23 14 160 14 l165 0 7 -42 c4 -24 25
-80 47 -125 64 -131 182 -226 320 -258 99 -22 2270 -22 2365 0 239 56 411 255
430 494 18 242 -158 466 -401 510 -41 8 -569 11 -1687 11 l-1627 0 -26 54
c-73 150 -256 223 -420 169z m-562 -497 c98 -46 155 -59 270 -60 111 -2 99 6
120 -78 l6 -28 -93 0 c-185 0 -324 56 -434 174 -102 110 -118 133 -103 151 10
13 23 5 87 -55 50 -47 100 -82 147 -104z m4368 92 c31 -14 77 -45 103 -69 53
-49 54 -64 3 -161 -40 -75 -112 -141 -196 -181 l-67 -32 -701 -5 c-672 -5
-703 -6 -723 -24 -29 -26 -28 -79 1 -106 22 -21 26 -21 733 -18 l710 3 62 24
c80 29 172 88 228 147 52 53 56 43 16 -41 -37 -78 -85 -132 -154 -173 -107
-64 -51 -62 -1282 -62 l-1120 0 -56 24 c-31 12 -71 33 -90 47 l-34 24 374 3
c369 2 375 3 398 24 30 28 31 78 2 104 -20 18 -46 19 -442 24 l-421 5 -11 79
c-8 57 -16 82 -30 92 -15 11 -73 14 -276 14 l-256 0 -41 103 c-22 56 -43 113
-47 127 -4 14 -9 33 -12 43 -4 16 72 17 1634 15 l1638 -3 57 -27z"/>
<path d="M1027 4018 c-37 -33 -40 -75 -7 -108 45 -45 120 -11 120 53 0 62 -68
95 -113 55z"/>
<path d="M3999 1467 c-179 -95 -112 -367 91 -367 93 0 167 59 190 151 30 119
-66 239 -190 239 -30 0 -63 -8 -91 -23z m125 -143 c19 -18 20 -28 6 -55 -21
-39 -90 -16 -90 30 0 16 30 41 50 41 10 0 26 -7 34 -16z"/>
</g>
</svg>
