<?xml version="1.0" standalone="no"?>
<!DOCTYPE svg PUBLIC "-//W3C//DTD SVG 20010904//EN"
 "http://www.w3.org/TR/2001/REC-SVG-20010904/DTD/svg10.dtd">
<svg version="1.0" xmlns="http://www.w3.org/2000/svg"
 width="512.000000pt" height="512.000000pt" viewBox="0 0 512.000000 512.000000"
 preserveAspectRatio="xMidYMid meet">

<g transform="translate(0.000000,512.000000) scale(0.100000,-0.100000)"
fill="#000000" stroke="none">
<path d="M1003 5105 c-81 -22 -132 -52 -193 -114 -95 -94 -130 -198 -130 -378
l0 -93 -91 0 c-170 0 -300 -52 -415 -165 -197 -194 -229 -489 -78 -720 18 -27
157 -180 308 -340 l275 -290 1 -477 0 -478 85 0 85 0 0 381 c0 225 4 379 9
377 8 -2 130 -131 653 -684 30 -32 30 -33 104 -550 88 -606 89 -626 31 -768
-20 -49 -36 -90 -34 -91 1 -1 36 -16 77 -33 l75 -31 23 50 c93 207 93 229 -7
918 l-79 553 -30 32 c-17 17 -344 362 -727 766 -621 656 -699 743 -730 805
-100 200 -20 432 183 532 l76 38 414 3 414 3 49 -46 c98 -92 251 -139 379
-117 37 6 74 14 83 18 11 4 17 1 17 -8 0 -8 18 -51 40 -97 22 -45 40 -84 40
-87 0 -2 -262 -4 -583 -4 -518 0 -585 -2 -605 -16 -29 -20 -44 -58 -36 -90 4
-16 148 -150 411 -384 l404 -360 283 0 c277 0 284 0 327 23 29 16 54 40 74 72
l30 48 3 191 3 191 73 22 c92 28 205 102 275 179 98 107 98 140 6 234 -30 30
-59 68 -65 84 -14 39 2 88 41 121 27 22 40 25 109 25 157 0 160 5 160 325 0
129 3 235 6 235 24 0 130 -75 184 -129 75 -77 105 -133 149 -283 28 -97 39
-119 117 -229 47 -67 88 -128 90 -134 3 -6 -17 -22 -45 -34 -27 -13 -54 -33
-60 -45 -5 -11 -12 -92 -13 -178 -4 -213 8 -201 -219 -208 -221 -6 -209 6
-209 -207 0 -166 8 -200 62 -250 54 -50 74 -53 418 -53 l320 0 404 359 c269
240 405 367 410 384 8 33 -7 71 -36 91 -20 14 -74 16 -446 16 l-423 0 27 24
c47 40 39 76 -42 192 -38 54 -73 105 -78 112 -6 10 109 12 601 10 l609 -3 76
-38 c203 -100 283 -332 183 -532 -31 -62 -109 -149 -730 -805 -383 -404 -710
-749 -727 -766 l-30 -32 -79 -553 c-80 -560 -88 -646 -68 -741 6 -29 69 -198
140 -376 71 -177 129 -324 129 -327 0 -3 -480 -5 -1067 -5 l-1067 0 30 32 c52
56 74 94 90 161 13 52 14 74 5 119 -21 98 -93 191 -204 265 -40 25 -74 48 -76
50 -3 2 11 20 31 41 87 90 106 203 52 302 -28 52 -109 134 -151 153 -22 10
-22 10 16 56 21 25 46 61 55 79 24 46 31 123 16 175 -26 96 -143 204 -268 249
-73 26 -286 36 -388 19 -196 -34 -354 -183 -354 -333 0 -72 18 -118 72 -182
l42 -49 -25 -16 c-48 -31 -121 -106 -147 -151 -22 -37 -27 -57 -27 -115 1 -80
19 -124 80 -190 20 -22 33 -41 28 -42 -32 -11 -140 -93 -181 -138 -76 -82 -97
-134 -97 -230 0 -68 5 -88 28 -133 43 -82 143 -174 240 -222 151 -74 3 -70
2164 -70 l1942 0 28 24 28 24 5 1480 5 1479 274 290 c150 159 290 315 311 347
144 219 109 522 -84 711 -115 113 -245 165 -415 165 l-91 0 0 101 c0 131 -21
222 -69 296 -66 102 -144 158 -258 188 -84 22 -3029 21 -3110 0z m261 -212
c-53 -89 -67 -149 -62 -270 l5 -103 -176 2 -176 3 0 115 c1 135 19 186 87 245
60 51 106 63 240 64 l117 1 -35 -57z m534 23 c223 -113 213 -436 -17 -539 -66
-30 -169 -29 -239 2 -67 30 -135 104 -158 173 -22 66 -15 177 14 233 36 71
118 135 197 156 52 14 150 2 203 -25z m847 -181 l0 -210 -57 -7 c-103 -13
-183 -71 -229 -164 -47 -98 -24 -237 51 -309 17 -16 30 -35 30 -42 0 -18 -97
-92 -155 -118 -105 -46 -89 -60 -198 163 -53 108 -99 209 -103 225 -5 22 0 34
28 65 79 87 118 190 118 309 0 43 -4 93 -9 110 -9 31 -7 35 32 66 56 46 121
81 182 100 72 23 89 25 205 23 l105 -1 0 -210z m1447 199 c61 -20 121 -73 149
-132 20 -41 23 -63 24 -162 l0 -115 -467 -3 -467 -2 -32 100 c-36 113 -86 200
-162 278 l-51 52 480 0 c408 0 487 -2 526 -16z m-2067 -1144 c24 -48 25 -56
25 -243 0 -137 -3 -196 -12 -205 -9 -9 -76 -12 -243 -12 l-230 1 -270 240
c-148 132 -277 246 -285 254 -12 13 48 15 488 15 l502 0 25 -50z m2080 31
c-11 -11 -139 -126 -285 -255 l-265 -236 -280 3 -280 2 -3 83 -3 82 113 0 c97
0 120 3 163 24 55 25 110 81 131 133 8 18 17 67 21 108 l6 75 351 0 c346 0
350 0 331 -19z m165 -2331 l0 -1320 -272 2 -272 3 -144 360 c-116 290 -145
372 -150 423 -3 43 6 140 29 304 l34 241 67 44 c233 153 332 433 245 690 l-24
71 236 251 c130 138 239 251 244 251 4 0 7 -594 7 -1320z m-604 613 c14 -110
-27 -247 -96 -326 -18 -21 -34 -36 -36 -34 -2 2 7 82 21 178 24 166 27 175 57
206 18 18 35 33 39 33 4 0 11 -26 15 -57z m-2682 -432 c72 -35 126 -94 126
-138 0 -30 -71 -108 -125 -136 -35 -19 -59 -22 -204 -25 l-163 -4 -64 32 c-76
37 -124 90 -124 137 0 60 93 138 194 164 17 4 90 7 162 6 125 -2 133 -4 198
-36z m84 -511 c150 -75 161 -173 30 -256 -73 -47 -142 -56 -362 -52 -235 5
-272 15 -351 99 -61 66 -60 88 8 155 81 78 101 82 378 83 l236 1 61 -30z m94
-517 c164 -77 234 -184 185 -280 -23 -43 -109 -118 -170 -147 -90 -42 -151
-48 -447 -44 -313 4 -337 9 -447 93 -102 77 -132 148 -95 221 37 71 118 134
220 170 66 24 72 24 377 22 l310 -3 67 -32z"/>
<path d="M2410 3223 c-27 -10 -67 -38 -102 -73 -45 -45 -60 -69 -73 -115 -57
-195 79 -385 276 -385 85 0 147 22 203 71 153 135 126 382 -53 482 -67 38
-178 47 -251 20z m170 -168 c82 -43 82 -178 -1 -221 -50 -25 -105 -18 -145 19
-109 100 14 270 146 202z"/>
<path d="M2394 2446 c-102 -47 -174 -157 -174 -265 0 -87 26 -148 88 -211 72
-72 133 -95 233 -88 259 19 369 345 173 517 -84 74 -219 94 -320 47z m185
-160 c83 -43 83 -178 1 -221 -132 -68 -255 102 -146 202 40 37 95 44 145 19z"/>
<path d="M2460 1701 c-147 -31 -248 -163 -237 -311 7 -110 66 -199 167 -251
62 -32 184 -33 251 -3 141 65 212 248 151 386 -56 128 -202 207 -332 179z
m127 -187 c42 -26 57 -64 54 -132 -1 -12 -16 -38 -34 -58 -58 -64 -152 -55
-197 19 -70 113 64 241 177 171z"/>
<path d="M2423 922 c-207 -74 -269 -320 -122 -486 17 -20 56 -48 87 -63 79
-39 183 -39 257 -1 190 99 227 340 75 482 -26 25 -65 52 -86 61 -62 26 -150
29 -211 7z m141 -166 c51 -21 76 -60 76 -118 0 -43 -5 -55 -33 -83 -108 -108
-276 23 -197 153 20 32 67 61 103 62 10 0 32 -6 51 -14z"/>
</g>
</svg>
