<?xml version="1.0" standalone="no"?>
<!DOCTYPE svg PUBLIC "-//W3C//DTD SVG 20010904//EN"
 "http://www.w3.org/TR/2001/REC-SVG-20010904/DTD/svg10.dtd">
<svg version="1.0" xmlns="http://www.w3.org/2000/svg"
 width="512.000000pt" height="512.000000pt" viewBox="0 0 512.000000 512.000000"
 preserveAspectRatio="xMidYMid meet">

<g transform="translate(0.000000,512.000000) scale(0.100000,-0.100000)"
fill="#000000" stroke="none">
<path d="M860 5102 c-48 -24 -80 -75 -80 -127 0 -43 307 -1203 381 -1440 50
-159 135 -387 224 -600 l67 -160 -14 -70 c-7 -41 -13 -132 -12 -220 1 -132 4
-161 28 -240 15 -49 41 -121 59 -159 l31 -68 -23 -67 c-53 -148 -120 -249
-210 -315 -47 -35 -53 -36 -88 -27 -71 20 -204 13 -291 -14 -82 -26 -201 -100
-241 -151 -28 -35 -27 -75 2 -102 38 -35 76 -29 138 25 30 25 79 58 109 72 48
23 68 26 160 26 97 0 110 -2 172 -32 164 -77 259 -254 229 -424 -31 -179 -159
-308 -338 -341 -120 -22 -255 23 -349 116 -65 65 -102 144 -114 243 -11 87
-30 113 -81 113 -47 0 -69 -31 -69 -98 0 -237 194 -466 439 -518 84 -18 139
-17 226 1 95 20 184 66 255 131 l59 55 50 -26 c61 -30 90 -32 119 -5 47 44 23
104 -56 145 -25 12 -32 21 -27 33 85 204 35 445 -125 603 l-68 67 45 43 c61
61 135 173 168 258 l28 72 41 -6 c26 -4 58 -1 88 10 44 14 52 14 93 0 25 -8
56 -15 70 -15 20 0 27 -9 45 -57 75 -203 114 -273 195 -361 30 -32 72 -71 93
-86 34 -23 42 -36 56 -90 8 -35 18 -69 21 -77 3 -10 -18 -26 -69 -52 -232
-119 -347 -402 -268 -655 l20 -63 -48 -24 c-53 -27 -73 -62 -58 -106 8 -24 44
-49 70 -49 6 0 35 12 64 27 l53 26 60 -56 c77 -71 169 -115 279 -134 98 -17
192 -8 282 26 l51 19 46 -49 c81 -86 217 -137 339 -126 76 7 169 42 189 70 21
30 19 73 -6 98 -24 24 -65 22 -139 -6 -84 -32 -215 0 -278 68 l-24 25 52 63
c98 123 135 236 127 389 -15 292 -234 507 -532 523 l-60 3 -27 100 c-25 94
-30 101 -75 139 -86 72 -148 139 -181 196 -32 56 -122 283 -122 307 0 7 11 33
25 57 36 60 84 197 101 283 18 97 18 284 -1 377 l-16 74 80 194 c168 406 209
533 415 1302 204 761 189 697 176 744 -13 48 -66 97 -116 107 -45 8 -104 -9
-132 -38 -11 -13 -69 -106 -127 -208 -113 -196 -118 -215 -73 -252 31 -27 72
-23 100 10 12 15 61 94 107 175 47 80 86 145 88 143 3 -3 -287 -1088 -337
-1261 -36 -124 -118 -363 -160 -470 -136 -344 -484 -1165 -496 -1169 -28 -11
-46 7 -84 85 -67 132 -85 212 -85 374 1 178 5 193 156 560 150 363 314 695
508 1030 94 162 151 270 151 288 0 38 -32 67 -74 67 -28 0 -40 -7 -59 -32 -31
-42 -275 -467 -357 -622 l-63 -118 -51 96 c-84 160 -727 1269 -750 1295 -45
50 -116 64 -176 33z m816 -1445 l78 -153 -61 -144 c-34 -80 -84 -199 -111
-265 l-50 -120 -21 48 c-130 302 -217 577 -406 1282 -92 341 -169 629 -172
640 -8 34 661 -1127 743 -1288z m405 -1341 c-23 -96 -94 -253 -123 -270 -42
-25 -33 16 51 218 72 175 87 203 89 175 2 -18 -6 -74 -17 -123z m653 -1275
c77 -38 157 -120 194 -198 24 -52 27 -70 27 -163 0 -98 -2 -110 -32 -171 -123
-249 -442 -311 -641 -125 -99 93 -147 234 -123 363 49 268 334 413 575 294z"/>
<path d="M3396 5025 c-55 -20 -86 -44 -123 -98 -76 -112 -38 -262 85 -334 l47
-28 310 -5 c225 -4 316 -9 332 -18 28 -15 43 -43 43 -76 l0 -25 -364 -3 c-342
-3 -365 -4 -385 -22 -14 -13 -21 -31 -21 -56 0 -25 7 -43 21 -56 20 -18 43
-19 385 -22 l364 -3 0 -74 0 -75 -359 0 c-347 0 -359 -1 -385 -21 -33 -26 -36
-79 -6 -109 19 -19 33 -20 385 -20 l365 0 0 -80 0 -80 -359 0 c-347 0 -359 -1
-385 -21 -33 -26 -36 -79 -6 -109 19 -19 33 -20 385 -20 l365 0 0 -80 0 -80
-365 0 c-352 0 -366 -1 -385 -20 -30 -30 -27 -83 6 -109 26 -20 38 -21 385
-21 l359 0 0 -80 0 -80 -365 0 c-352 0 -366 -1 -385 -20 -30 -30 -27 -83 6
-109 26 -20 38 -21 385 -21 l359 0 0 -75 0 -74 -364 -3 c-342 -3 -365 -4 -385
-22 -14 -13 -21 -31 -21 -56 0 -25 7 -43 21 -56 20 -18 43 -19 385 -22 343 -3
364 -4 364 -21 0 -27 -41 -82 -79 -108 -33 -23 -38 -23 -336 -23 -291 0 -303
-1 -329 -21 -33 -26 -36 -79 -6 -109 18 -18 33 -20 180 -20 l160 0 0 -592 c0
-326 5 -636 10 -688 16 -155 150 -902 169 -946 27 -60 76 -110 139 -141 47
-23 70 -28 132 -28 88 0 145 23 204 83 66 65 74 92 142 481 94 529 94 528 94
842 0 255 -1 277 -18 292 -27 24 -85 22 -108 -4 -18 -19 -19 -45 -25 -328 l-6
-306 -72 -405 c-44 -245 -79 -416 -89 -434 -41 -71 -130 -96 -191 -54 -67 45
-68 48 -141 469 -39 217 -74 438 -80 493 -5 54 -10 357 -10 682 l0 584 78 0
c113 0 164 20 238 94 101 102 94 21 94 1071 l0 911 -27 55 c-31 60 -92 112
-151 129 -21 6 -156 10 -320 10 -312 0 -328 3 -352 60 -10 24 -10 36 0 60 25
60 33 61 433 58 l362 -3 57 -28 c62 -30 115 -83 150 -149 l23 -43 5 -1325 c4
-1018 8 -1330 17 -1346 23 -39 81 -46 113 -14 20 20 20 33 20 1344 0 1272 -1
1327 -19 1385 -49 157 -190 286 -349 320 -83 17 -756 14 -806 -4z"/>
<path d="M1779 2851 c-20 -20 -29 -39 -29 -61 0 -43 47 -90 90 -90 43 0 90 47
90 90 0 43 -47 90 -90 90 -22 0 -41 -9 -61 -29z"/>
</g>
</svg>
