<?xml version="1.0" standalone="no"?>
<!DOCTYPE svg PUBLIC "-//W3C//DTD SVG 20010904//EN"
 "http://www.w3.org/TR/2001/REC-SVG-20010904/DTD/svg10.dtd">
<svg version="1.0" xmlns="http://www.w3.org/2000/svg"
 width="512.000000pt" height="512.000000pt" viewBox="0 0 512.000000 512.000000"
 preserveAspectRatio="xMidYMid meet">

<g transform="translate(0.000000,512.000000) scale(0.100000,-0.100000)"
fill="#000000" stroke="none">
<path d="M1226 5099 c-34 -26 -33 -45 4 -221 17 -77 30 -147 30 -155 0 -9 -13
-13 -40 -13 -31 0 -47 -7 -66 -26 -26 -25 -26 -27 -18 -117 14 -145 11 -434
-4 -494 -10 -36 -33 -77 -73 -129 -38 -50 -59 -86 -59 -104 0 -57 83 -92 127
-52 35 31 100 116 122 159 48 95 71 311 54 506 l-9 97 236 0 235 0 0 -222 c0
-326 6 -344 202 -579 301 -361 362 -479 363 -698 l0 -73 -27 6 c-16 4 -68 9
-118 13 -130 8 -264 -15 -648 -111 -311 -78 -488 -116 -545 -116 l-24 0 4 198
c3 189 4 199 30 254 40 85 92 158 264 365 86 103 169 213 184 243 61 121 90
273 90 477 0 103 -2 114 -23 139 -30 34 -79 37 -109 6 -20 -19 -22 -34 -24
-164 -2 -79 -10 -177 -18 -218 -27 -140 -46 -175 -193 -351 -228 -274 -293
-369 -332 -486 -18 -54 -21 -86 -21 -252 0 -104 -4 -192 -8 -195 -5 -3 -23 4
-40 14 l-32 20 0 174 c0 159 2 182 25 254 26 82 87 192 168 301 52 70 57 96
26 135 -30 39 -81 36 -120 -6 -53 -59 -160 -225 -191 -300 -66 -155 -62 -96
-65 -990 -2 -450 -6 -818 -8 -818 -3 0 -37 9 -77 20 -105 28 -259 50 -361 50
-80 0 -90 -2 -112 -25 -22 -21 -25 -33 -25 -97 0 -40 5 -113 11 -163 42 -345
182 -612 400 -761 l71 -49 -220 -3 -221 -2 -20 -27 c-25 -31 -27 -77 -6 -158
45 -170 171 -296 342 -340 50 -13 333 -15 2203 -15 1895 0 2153 2 2205 15 171
45 295 170 340 342 21 79 19 125 -6 157 -20 25 -24 26 -131 26 l-110 0 35 40
c182 213 166 545 -36 737 -34 32 -73 65 -86 74 l-25 16 46 31 c140 96 228 267
228 442 0 148 -53 275 -159 381 -101 101 -206 148 -351 158 l-85 6 -6 155 c-5
132 -10 165 -31 221 -34 92 -69 148 -135 220 -127 136 -286 212 -508 239 l-95
12 0 32 c0 31 2 32 69 49 169 44 319 149 376 264 103 209 -24 567 -340 953
-112 137 -148 170 -185 170 -29 0 -44 -11 -112 -82 -212 -221 -368 -477 -424
-695 -21 -80 -25 -115 -21 -193 4 -119 27 -171 112 -256 68 -69 183 -131 298
-161 65 -17 67 -19 67 -50 0 -31 -1 -32 -57 -38 -245 -27 -416 -105 -547 -245
-65 -71 -100 -128 -134 -219 -21 -56 -26 -89 -31 -221 l-6 -155 -115 0 -115 0
-5 400 c-5 378 -7 404 -28 465 -51 153 -141 290 -357 549 -76 91 -144 180
-152 198 -25 61 -36 244 -23 407 6 82 14 161 17 177 8 43 -41 89 -97 89 -39 0
-42 2 -37 23 31 123 66 313 61 333 -13 52 -25 54 -330 54 -269 0 -282 -1 -308
-21z m464 -149 c0 -11 -38 -194 -46 -222 -5 -16 -19 -18 -113 -18 l-108 0 -22
111 c-13 61 -25 117 -28 125 -4 12 22 14 156 14 102 0 161 -4 161 -10z m2022
-577 c189 -253 290 -499 259 -637 -9 -39 -24 -68 -53 -101 -22 -25 -42 -44
-44 -42 -2 1 3 25 11 52 27 90 14 201 -28 230 -31 22 -64 19 -92 -10 -22 -21
-25 -33 -25 -101 0 -99 -21 -144 -101 -219 -33 -30 -64 -55 -68 -55 -20 0
-132 115 -151 156 -49 100 -8 265 101 410 l43 56 26 -29 c14 -16 37 -44 51
-63 21 -28 32 -34 64 -34 44 0 75 30 75 74 0 48 -143 223 -192 235 -33 8 -72
-12 -119 -62 -177 -187 -263 -425 -214 -588 8 -27 13 -51 11 -52 -2 -2 -22 17
-44 42 -47 54 -67 119 -57 192 27 199 132 404 322 630 l78 94 39 -43 c21 -24
69 -84 108 -135z m153 -1292 c217 -70 356 -208 394 -389 6 -29 11 -102 11
-163 l0 -109 -582 2 -583 3 1 115 c2 133 15 172 83 233 93 84 194 110 416 106
164 -3 190 3 201 48 10 38 -7 76 -41 93 -44 22 -335 19 -430 -4 -162 -39 -295
-139 -353 -263 -24 -52 -27 -72 -30 -196 l-4 -138 -37 3 -36 3 -3 95 c-2 52 2
124 8 160 36 207 215 366 471 420 24 5 134 8 244 6 176 -2 209 -6 270 -25z
m-1577 -262 l42 -18 0 -206 0 -207 -38 -43 c-66 -75 -79 -163 -38 -251 13 -28
37 -61 53 -75 l29 -24 -37 -53 c-48 -68 -74 -162 -66 -242 l5 -60 -56 0 c-118
0 -257 -24 -438 -76 -19 -5 -23 0 -34 48 -18 82 -111 264 -183 358 -64 84
-218 241 -288 293 -52 39 -94 36 -150 -10 -118 -97 -251 -240 -323 -347 l-26
-39 0 387 0 386 27 -6 c16 -4 31 -9 36 -11 4 -2 7 -68 7 -146 0 -201 14 -237
89 -237 20 0 36 8 50 26 19 24 21 40 21 184 0 172 -1 170 59 170 60 0 230 36
527 111 479 120 618 137 732 88z m2337 -578 c83 -33 184 -134 213 -213 29 -76
36 -142 23 -210 -30 -162 -154 -287 -316 -318 -43 -8 -333 -10 -1025 -8 l-965
3 -41 22 c-79 42 -125 119 -125 208 0 91 44 164 126 208 l40 22 973 3 973 2
31 -30 c24 -25 29 -36 23 -58 -3 -15 -15 -36 -26 -47 -19 -19 -35 -20 -581
-23 -560 -2 -562 -3 -585 -24 -31 -29 -31 -77 0 -107 l24 -22 586 3 585 3 43
30 c66 47 100 101 106 172 7 75 -8 123 -55 175 -71 79 28 72 -1158 78 -1026 5
-1063 6 -1083 24 -32 29 -29 88 6 115 l26 21 1061 -2 1061 -3 60 -24z m-3344
-228 c151 -154 226 -269 268 -407 33 -107 31 -116 -38 -161 -89 -57 -106 -126
-41 -160 41 -21 51 -19 107 19 142 97 318 156 522 175 l84 7 -7 -85 c-18 -238
-102 -451 -234 -593 -125 -136 -367 -237 -606 -255 l-89 -6 6 94 c9 129 47
271 107 396 34 72 48 113 44 128 -14 58 -84 77 -128 36 -13 -13 -41 -61 -63
-107 -21 -46 -40 -84 -43 -84 -3 0 -18 31 -35 68 -66 147 -202 309 -319 377
-39 23 -46 31 -46 58 0 54 55 193 111 283 59 95 260 314 288 314 10 0 60 -44
112 -97z m-903 -552 c200 -37 390 -137 499 -262 113 -129 197 -353 210 -558
l6 -94 -89 6 c-174 13 -363 74 -489 158 -136 91 -236 228 -293 402 -33 100
-62 254 -62 327 l0 46 78 -7 c42 -4 105 -12 140 -18z m4247 -170 c44 -18 78
-42 126 -90 86 -86 113 -150 113 -271 0 -75 -4 -93 -31 -152 -58 -123 -160
-204 -287 -227 -40 -7 -366 -11 -1001 -11 -819 0 -948 2 -993 15 -200 60 -223
328 -37 428 l40 22 973 3 973 2 31 -30 c24 -25 29 -36 23 -58 -3 -15 -15 -36
-26 -47 -19 -20 -35 -20 -984 -23 l-964 -2 -20 -26 c-28 -35 -26 -69 4 -99
l24 -25 962 0 c729 0 972 3 1003 12 54 16 131 93 145 144 25 90 7 171 -52 232
-69 72 24 66 -1153 72 -1026 5 -1063 6 -1083 24 -32 29 -29 88 6 115 l26 21
1061 -2 1061 -3 60 -24z m-2316 -223 l27 -23 -37 -53 c-78 -110 -89 -252 -30
-378 17 -37 30 -69 28 -71 -2 -2 -102 -2 -222 -1 l-217 3 69 48 c132 89 243
230 309 391 19 45 34 87 34 94 0 17 8 15 39 -10z m2641 -690 c0 -30 -46 -102
-91 -142 -92 -83 120 -76 -2299 -76 -2419 0 -2207 -7 -2299 76 -45 40 -91 112
-91 142 0 9 555 12 2390 12 1835 0 2390 -3 2390 -12z"/>
<path d="M2561 1774 c-28 -35 -26 -69 4 -99 l24 -25 296 0 296 0 24 25 c30 30
32 64 4 99 l-20 26 -304 0 -304 0 -20 -26z"/>
</g>
</svg>
