<?xml version="1.0" standalone="no"?>
<!DOCTYPE svg PUBLIC "-//W3C//DTD SVG 20010904//EN"
 "http://www.w3.org/TR/2001/REC-SVG-20010904/DTD/svg10.dtd">
<svg version="1.0" xmlns="http://www.w3.org/2000/svg"
 width="512.000000pt" height="512.000000pt" viewBox="0 0 512.000000 512.000000"
 preserveAspectRatio="xMidYMid meet">

<g transform="translate(0.000000,512.000000) scale(0.100000,-0.100000)"
fill="#000000" stroke="none">
<path d="M1320 5107 c-62 -17 -109 -48 -160 -103 -50 -54 -76 -111 -85 -179
-3 -27 -15 -326 -25 -664 -18 -551 -19 -617 -5 -637 17 -27 53 -39 85 -29 49
15 48 12 70 676 11 343 25 641 30 662 44 157 263 183 346 41 l26 -45 49 -1486
c28 -851 53 -1510 60 -1542 20 -99 74 -198 153 -277 60 -61 89 -80 186 -127
63 -30 146 -65 185 -77 111 -37 145 -86 145 -212 l0 -58 -965 0 -965 0 0 76
c0 83 17 134 53 156 12 8 63 29 112 47 227 84 333 155 413 276 65 96 92 181
98 310 16 308 40 1233 33 1252 -17 46 -82 57 -117 20 -18 -19 -22 -40 -28
-134 l-7 -112 -296 -3 c-287 -3 -297 -4 -343 -26 -88 -43 -158 -151 -158 -242
0 -103 82 -217 180 -250 l55 -19 7 -143 c10 -237 54 -440 138 -643 22 -55 42
-104 43 -109 1 -4 -38 -23 -86 -41 -113 -43 -161 -75 -198 -133 -42 -66 -49
-101 -49 -240 l0 -124 34 -34 c29 -29 41 -34 80 -34 l46 0 0 -386 c0 -371 1
-388 21 -423 11 -20 36 -48 56 -61 l37 -25 1490 0 1491 0 40 21 c58 30 97 91
103 158 6 71 -32 207 -95 338 -26 54 -45 99 -42 100 2 2 44 23 93 47 107 53
246 143 341 221 149 122 345 347 345 396 0 34 -42 74 -79 74 -25 0 -42 -15
-118 -108 -283 -341 -654 -552 -1088 -617 -71 -11 -184 -15 -392 -15 l-293 0
0 140 0 140 38 0 c20 0 51 9 69 20 45 27 57 78 50 214 -5 89 -10 118 -32 162
-38 78 -97 125 -207 164 -236 84 -333 152 -394 275 -41 82 -48 139 -58 483
l-5 182 389 0 390 0 0 -158 c0 -182 11 -234 65 -305 24 -32 55 -55 100 -78 59
-29 71 -31 137 -27 85 6 136 28 190 85 48 50 77 117 85 197 3 36 14 78 23 94
20 33 75 62 117 62 38 0 89 -33 113 -72 18 -31 20 -51 20 -279 0 -302 5 -326
89 -410 46 -46 70 -61 116 -74 138 -41 278 22 342 153 l28 57 3 378 4 377 239
0 239 0 0 -87 c0 -188 -30 -358 -97 -548 -60 -172 -63 -196 -28 -224 72 -56
109 -17 178 189 61 183 92 371 100 598 l2 73 55 19 c98 33 180 147 180 250 0
91 -70 199 -158 242 l-47 23 -1447 3 -1448 2 0 83 c0 45 -14 474 -29 952 -28
825 -30 873 -51 927 -58 156 -248 251 -410 205z m-319 -2321 c2 -2 3 -56 1
-120 l-3 -116 -272 0 c-252 0 -274 2 -304 20 -35 21 -63 66 -63 102 0 35 37
88 73 103 25 11 92 14 298 15 146 0 268 -2 270 -4z m1609 -116 l0 -120 -389 0
-388 0 -7 38 c-3 20 -6 74 -6 120 l0 82 395 0 395 0 0 -120z m1275 -440 c0
-537 -1 -556 -20 -589 -56 -95 -187 -90 -237 10 -16 30 -18 66 -18 281 0 284
-8 322 -81 398 -59 61 -118 85 -209 85 -65 0 -82 -4 -129 -30 -92 -51 -151
-142 -151 -234 0 -58 -18 -105 -51 -137 -26 -25 -38 -29 -89 -29 -48 0 -63 4
-85 25 -53 49 -55 61 -55 435 l0 345 563 -2 562 -3 0 -555z m822 534 c15 -11
35 -39 43 -62 13 -37 12 -45 -3 -77 -9 -19 -31 -44 -49 -55 -31 -19 -51 -20
-345 -20 l-313 0 0 120 0 121 319 -3 c306 -3 321 -4 348 -24z m-3722 -616 c-8
-288 -13 -329 -55 -414 -27 -56 -125 -164 -148 -164 -11 0 -54 94 -88 193 -56
163 -93 379 -94 545 l0 92 196 0 196 0 -7 -252z m1233 -1620 l-3 -373 -147 -3
-148 -3 0 132 c0 152 -7 169 -70 169 -65 0 -74 -22 -78 -171 l-4 -129 -138 0
-139 0 -3 176 c-3 171 -4 176 -27 195 -31 25 -69 24 -98 -3 -22 -21 -23 -27
-23 -195 l0 -173 -145 0 -145 0 0 128 c0 115 -2 130 -20 150 -28 30 -82 30
-110 0 -18 -20 -20 -35 -20 -150 l0 -129 -142 3 -143 3 -3 373 -2 372 805 0
805 0 -2 -372z m1246 -60 c44 -90 86 -219 86 -265 0 -55 17 -53 -606 -53
l-574 0 0 160 0 160 298 0 c321 0 425 10 605 55 56 14 103 28 106 30 2 3 12 5
22 5 12 0 31 -29 63 -92z"/>
</g>
</svg>
