<?xml version="1.0" standalone="no"?>
<!DOCTYPE svg PUBLIC "-//W3C//DTD SVG 20010904//EN"
 "http://www.w3.org/TR/2001/REC-SVG-20010904/DTD/svg10.dtd">
<svg version="1.0" xmlns="http://www.w3.org/2000/svg"
 width="512.000000pt" height="512.000000pt" viewBox="0 0 512.000000 512.000000"
 preserveAspectRatio="xMidYMid meet">

<g transform="translate(0.000000,512.000000) scale(0.100000,-0.100000)"
fill="#000000" stroke="none">
<path d="M25 5095 c-14 -13 -25 -36 -25 -50 0 -14 11 -37 25 -50 l24 -25 723
0 c789 0 784 0 892 -58 73 -39 147 -116 184 -192 36 -74 57 -167 47 -217 -11
-61 -21 -63 -418 -63 -427 0 -401 -8 -409 123 -6 98 -29 149 -88 199 -22 19
-57 40 -79 46 -26 8 -165 12 -445 12 l-407 0 -24 -25 c-32 -31 -32 -69 0 -100
l24 -25 405 0 405 0 27 -23 c25 -22 28 -32 34 -113 4 -51 13 -102 23 -120 24
-47 92 -100 142 -113 67 -17 759 -14 808 3 54 20 104 61 130 109 18 35 22 57
21 127 -2 211 -135 419 -329 515 -132 65 -130 65 -938 65 l-728 0 -24 -25z"/>
<path d="M1090 4120 c-20 -20 -20 -33 -20 -590 0 -557 0 -570 20 -590 27 -27
81 -26 106 1 18 20 19 45 19 591 l0 570 -24 19 c-30 25 -76 24 -101 -1z"/>
<path d="M1431 4114 c-20 -26 -21 -37 -21 -411 l0 -384 25 -24 c13 -14 36 -25
50 -25 14 0 37 11 50 25 l25 24 0 384 c0 374 -1 385 -21 411 -15 19 -30 26
-54 26 -24 0 -39 -7 -54 -26z"/>
<path d="M1779 4121 l-24 -19 -3 -284 c-3 -277 -2 -285 18 -311 27 -34 80 -37
110 -7 19 19 20 33 20 310 0 277 -1 291 -20 310 -25 25 -71 26 -101 1z"/>
<path d="M3264 3505 c-28 -8 -107 -39 -175 -69 -69 -30 -152 -62 -185 -71 -91
-23 -121 -79 -69 -130 42 -43 103 -30 325 67 69 31 139 59 157 62 29 7 34 4
53 -26 25 -41 47 -113 61 -198 5 -36 16 -74 23 -85 8 -11 60 -40 117 -64 57
-24 107 -47 111 -50 15 -13 -44 -115 -102 -175 -67 -70 -77 -109 -40 -146 30
-30 71 -25 123 15 46 35 129 149 148 204 6 17 14 31 18 31 4 0 53 -27 109 -60
110 -65 198 -144 225 -202 45 -96 -6 -318 -138 -603 l-43 -93 -138 -1 c-156 0
-243 -10 -391 -46 -237 -57 -456 -168 -648 -329 l-90 -75 -170 0 c-144 -1
-176 2 -210 18 -103 48 -142 149 -94 249 27 55 79 90 155 102 66 11 94 34 94
79 0 38 -10 48 -141 134 -294 193 -420 399 -444 726 -8 107 -23 131 -78 131
-56 0 -72 -28 -72 -124 0 -81 -1 -83 -38 -126 -77 -89 -158 -295 -173 -435 -8
-73 13 -108 64 -108 45 0 69 27 82 92 17 85 49 190 77 250 l26 53 27 -69 c69
-178 193 -334 372 -467 l37 -28 -52 -51 c-70 -68 -99 -130 -105 -221 -4 -69 0
-86 43 -188 7 -17 -7 -18 -219 -18 l-226 0 0 210 c0 222 -5 250 -47 269 -34
16 -47 14 -77 -10 l-26 -20 0 -225 0 -224 -150 0 -150 0 0 288 c0 158 5 326
10 372 45 372 172 654 388 862 149 143 293 224 490 274 103 26 317 43 340 26
11 -7 9 -21 -7 -70 -33 -97 -54 -238 -48 -317 5 -59 10 -74 32 -92 30 -26 43
-28 79 -11 33 15 38 31 41 152 4 118 39 255 86 327 42 66 38 108 -11 134 -16
8 -83 20 -149 27 -388 38 -787 -125 -1037 -424 -190 -226 -304 -503 -349 -841
-10 -83 -15 -205 -15 -413 l0 -294 -200 0 c-200 0 -201 0 -225 -25 -32 -31
-32 -69 0 -100 l24 -25 1458 0 c1611 0 1496 5 1508 -63 10 -52 -21 -175 -70
-272 -141 -284 -485 -596 -857 -780 -145 -71 -165 -91 -146 -147 22 -62 60
-62 191 0 280 133 550 339 758 578 50 58 114 121 143 140 111 75 285 104 421
69 131 -35 154 -53 561 -457 412 -409 407 -406 459 -353 53 52 56 48 -342 448
-397 397 -454 445 -589 491 -122 42 -323 46 -420 9 -11 -4 -9 7 5 50 26 74 44
201 36 245 -14 76 -67 145 -134 175 -17 8 -141 14 -363 17 l-337 5 77 51 c376
250 829 312 1276 177 80 -24 91 -26 114 -12 37 20 51 63 31 97 -17 31 -68 52
-208 88 -52 13 -96 26 -98 28 -2 1 15 42 37 90 22 48 58 139 80 202 148 428
72 595 -371 822 -63 32 -157 77 -209 100 l-95 41 -21 89 c-36 159 -96 248
-181 271 -47 13 -56 13 -119 -4z"/>
<path d="M2877 3040 c-15 -12 -28 -35 -32 -58 -3 -20 -21 -64 -40 -97 -69
-123 -69 -123 -59 -153 12 -35 56 -56 92 -44 56 18 153 199 156 290 1 35 -4
48 -23 63 -30 24 -62 24 -94 -1z"/>
<path d="M4596 1679 c-29 -23 -36 -73 -13 -101 6 -8 54 -44 105 -78 52 -35
147 -114 213 -177 129 -123 150 -133 194 -88 47 46 36 68 -87 191 -142 140
-323 274 -370 274 -8 0 -27 -9 -42 -21z"/>
<path d="M25 1435 l-25 -24 0 -681 0 -681 25 -24 c31 -32 69 -32 100 0 l25 24
0 631 0 630 135 0 c131 0 137 1 160 25 34 33 33 77 -1 104 -25 20 -40 21 -211
21 -182 0 -184 0 -208 -25z"/>
</g>
</svg>
